<svg width="22" height="17" viewBox="0 0 22 17" fill="none" xmlns="http://www.w3.org/2000/svg">
<path d="M14.5631 8.25C14.5631 9.2814 14.1735 10.2706 13.4799 10.9999C12.7864 11.7292 11.8458 12.1389 10.865 12.1389M7.16692 8.25C7.16692 7.2186 7.55654 6.22945 8.25006 5.50014C8.94359 4.77083 9.88421 4.36111 10.865 4.36111M8.64615 14.9809C9.37374 15.1584 10.1181 15.2486 10.865 15.25C16.1754 15.25 20.48 10.5833 20.48 8.25C20.48 7.21089 19.6257 5.70822 18.2086 4.36111M13.4537 1.61556C12.6097 1.37495 11.7394 1.25204 10.865 1.25C5.55456 1.25 1.25 5.91667 1.25 8.25C1.25 9.27667 2.08355 10.7544 3.46885 12.0883M4.20846 15.25L17.5215 1.25" stroke="black" stroke-width="2" stroke-linecap="round" stroke-linejoin="round"/>
</svg>
